<?xml version="1.0" encoding="UTF-8" standalone="no"?>
<!DOCTYPE svg PUBLIC "-//W3C//DTD SVG 1.1//EN" "http://www.w3.org/Graphics/SVG/1.1/DTD/svg11.dtd">
<svg width="100%" height="100%" viewBox="0 0 190 98" version="1.1" xmlns="http://www.w3.org/2000/svg" xmlns:xlink="http://www.w3.org/1999/xlink" xml:space="preserve" xmlns:serif="http://www.serif.com/" style="fill-rule:evenodd;clip-rule:evenodd;stroke-linejoin:round;stroke-miterlimit:2;">
    <g transform="matrix(1.33333,0,0,1.33333,-91.5649,-148.001)">
        <g transform="matrix(1,0,0,1,88.2442,119.037)">
            <path d="M0,-3.8L0,3.3L2,3.3L2,-6.2C2,-6.8 1.5,-7.3 0.9,-7.3C0.6,-7.3 0.3,-7.1 0.1,-6.901L-5.9,0.4L-5.9,-6.2C-5.9,-6.8 -6.4,-7.3 -7,-7.3C-7.3,-7.3 -7.6,-7.2 -7.8,-7L-18.8,3.4L-15.9,3.4L-7.9,-4.1L-7.9,2.2C-7.9,2.9 -7.3,3.5 -6.6,3.5C-6.1,3.5 -5.8,3.3 -5.5,3L0,-3.8Z" style="fill:rgb(166,187,200);fill-rule:nonzero;"/>
        </g>
        <g transform="matrix(1,0,0,1,187.145,118.936)">
            <path d="M0,-3.499L0,3.501L-2,3.501L-2,-5.999C-2,-6.6 -1.5,-7.1 -0.9,-7.1C-0.601,-7.1 -0.3,-6.999 0,-6.699L5.5,0.001L5.5,-6.999L7.399,-6.999L7.399,2.501C7.399,3.101 6.899,3.601 6.3,3.601C6,3.601 5.7,3.501 5.399,3.2L0,-3.499Z" style="fill:rgb(166,187,200);fill-rule:nonzero;"/>
        </g>
        <g transform="matrix(1,0,0,1,116.944,118.936)">
            <path d="M0,-3.499L0,3.501L-2,3.501L-2,-5.999C-2,-6.6 -1.5,-7.1 -0.9,-7.1C-0.6,-7.1 -0.3,-6.999 0,-6.699L5.5,0.001L5.5,-6.999L7.4,-6.999L7.4,2.501C7.4,3.101 6.9,3.601 6.3,3.601C6,3.601 5.7,3.501 5.4,3.2L0,-3.499Z" style="fill:rgb(166,187,200);fill-rule:nonzero;"/>
        </g>
        <g transform="matrix(1,0,0,1,142.744,117.236)">
            <path d="M0,0.001C0,2.001 1.4,3.601 3.5,3.601C4.7,3.601 5.601,3.001 5.9,2.101L8.101,2.101C7.7,3.801 5.9,5.4 3.5,5.4C0.3,5.4 -2,3.001 -2,0.001C-2,-2.999 0.3,-5.399 3.5,-5.399C6,-5.399 7.8,-3.899 8.2,-1.999L6,-1.999C5.7,-2.899 4.9,-3.6 3.601,-3.6C1.4,-3.699 0,-1.999 0,0.001" style="fill:rgb(166,187,200);fill-rule:nonzero;"/>
        </g>
        <g transform="matrix(1,0,0,1,157.044,113.637)">
            <path d="M0,7.2C-1.899,7.2 -3.399,5.5 -3.399,3.6C-3.399,1.6 -1.899,0 0,0C1.9,0 3.4,1.7 3.4,3.6C3.4,5.5 1.9,7.2 0,7.2M0,-1.8C-3,-1.8 -5.399,0.6 -5.399,3.6C-5.399,6.6 -3,9 0,9C3,9 5.4,6.6 5.4,3.6C5.4,0.6 3,-1.8 0,-1.8" style="fill:rgb(166,187,200);fill-rule:nonzero;"/>
        </g>
        <g transform="matrix(1,0,0,1,131.344,113.637)">
            <path d="M0,7.2C-1.9,7.2 -3.4,5.5 -3.4,3.6C-3.4,1.6 -1.9,0 0,0C1.9,0 3.4,1.7 3.4,3.6C3.4,5.5 1.9,7.2 0,7.2M0,-1.8C-3,-1.8 -5.4,0.6 -5.4,3.6C-5.4,6.6 -3,9 0,9C3,9 5.4,6.6 5.4,3.6C5.4,0.6 3,-1.8 0,-1.8" style="fill:rgb(166,187,200);fill-rule:nonzero;"/>
        </g>
        <g transform="matrix(1,0,0,1,174.845,112.037)">
            <path d="M0,10.4L2,10.4L2,1.799L4.899,1.799L4.899,0L-2.9,0L-2.9,1.799L0,1.799L0,10.4Z" style="fill:rgb(166,187,200);fill-rule:nonzero;"/>
        </g>
        <g transform="matrix(1,0,0,1,102.645,112.037)">
            <path d="M0,10.4L0,8.599L-4.5,8.599L-4.5,0L-6.5,0L-6.5,10.4L0,10.4Z" style="fill:rgb(166,187,200);fill-rule:nonzero;"/>
        </g>
        <g transform="matrix(1,0,0,1,-1.42109e-14,26.4)">
            <rect x="181.244" y="85.637" width="2" height="10.4" style="fill:rgb(166,187,200);"/>
        </g>
        <g transform="matrix(1,0,0,1,-1.42109e-14,26.4)">
            <rect x="92.145" y="85.637" width="2" height="10.4" style="fill:rgb(166,187,200);"/>
        </g>
        <g transform="matrix(1,0,0,1,165.744,118.138)">
            <path d="M0,-2.001L0,-4.501L1.601,-4.501C2.601,-4.501 3.101,-4.101 3.101,-3.301C3.101,-2.501 2.5,-2.101 1.601,-2.101L0,-2.101L0,-2.001ZM2.8,-0.301C4.2,-0.601 5.101,-1.7 5.101,-3.2C5.101,-4.9 3.9,-6.2 2,-6.2L-2,-6.2L-2,4.199L0,4.199L0,-0.301L0.5,-0.301L3.9,4.199L6.3,4.199L2.8,-0.301Z" style="fill:rgb(166,187,200);fill-rule:nonzero;"/>
        </g>
        <g transform="matrix(1,0,0,1,198.544,116.138)">
            <path d="M0,1.999L0,-1.301L3.5,1.999L0,1.999ZM-0.1,-4.001C-0.3,-4.2 -0.6,-4.301 -0.899,-4.301C-1.5,-4.301 -2,-3.801 -2,-3.2L-2,6.3L0,6.3L0,3.899L5.4,3.899L8,6.3L10.9,6.3L-0.1,-4.001Z" style="fill:rgb(166,187,200);fill-rule:nonzero;"/>
        </g>
        <g transform="matrix(1,0,0,1,107.344,116.138)">
            <path d="M0,1.999L1.4,-1.101L2.8,1.999L0,1.999ZM2.2,-3.801C2.1,-4.101 1.8,-4.301 1.4,-4.301C1,-4.301 0.8,-4.101 0.6,-3.801L-4,6.3L-1.9,6.3L-0.8,3.899L3.6,3.899L4.7,6.3L6.9,6.3L2.2,-3.801Z" style="fill:rgb(166,187,200);fill-rule:nonzero;"/>
        </g>
        <g transform="matrix(1,0,0,1,140.145,126.438)">
            <path d="M0,8.699C0,8.399 0.2,8.099 0.5,7.8L4.2,3.8C4.8,3.199 5.2,2.699 5.2,2C5.2,1.199 4.6,0.8 3.7,0.8C2.8,0.8 2.2,1.5 2.2,2.3L0.2,2.3C0.2,0.699 1.5,-1 3.7,-1C5.899,-1 7.2,0.3 7.2,1.8C7.2,2.899 6.5,3.699 5.6,4.699L2.8,7.8L7.2,7.8L7.2,9.599L1,9.599C0.399,9.699 0,9.3 0,8.699" style="fill:rgb(166,187,200);fill-rule:nonzero;"/>
        </g>
        <g transform="matrix(1,0,0,1,123.844,126.438)">
            <path d="M0,8.699C0,8.399 0.2,8.099 0.5,7.8L4.2,3.8C4.8,3.199 5.2,2.699 5.2,2C5.2,1.199 4.6,0.8 3.7,0.8C2.8,0.8 2.2,1.5 2.2,2.3L0.2,2.3C0.2,0.699 1.5,-1 3.7,-1C5.9,-1 7.2,0.3 7.2,1.8C7.2,2.899 6.5,3.699 5.6,4.699L2.8,7.8L7.2,7.8L7.2,9.599L1,9.599C0.4,9.699 0,9.3 0,8.699" style="fill:rgb(166,187,200);fill-rule:nonzero;"/>
        </g>
        <g transform="matrix(1,0,0,1,135.645,127.337)">
            <path d="M0,7.2C-1,7.2 -1.6,5.9 -1.6,3.6C-1.6,1.2 -1,0 0,0C1,0 1.6,1.3 1.6,3.6C1.6,6 1,7.2 0,7.2M0,-1.8C-2.5,-1.8 -3.6,0.5 -3.6,3.6C-3.6,6.7 -2.4,9 0,9C2.4,9 3.6,6.7 3.6,3.6C3.6,0.5 2.4,-1.8 0,-1.8" style="fill:rgb(166,187,200);fill-rule:nonzero;"/>
        </g>
        <g transform="matrix(1,0,0,1,151.444,127.537)">
            <path d="M0,7C-0.9,7 -1.5,6.2 -1.5,5.2C-1.5,4.2 -0.9,3.4 0,3.4C0.9,3.4 1.5,4.2 1.5,5.2C1.5,6.2 1,7 0,7M0,1.7L2.1,-1.8L0.1,-1.8L-2.9,3.3C-3.2,3.9 -3.5,4.5 -3.5,5.2C-3.5,7.2 -1.9,8.8 0.1,8.8C2.1,8.8 3.7,7.2 3.7,5.2C3.6,3.3 2,1.7 0,1.7" style="fill:rgb(166,187,200);fill-rule:nonzero;"/>
        </g>
    </g>
    <g id="_2006_Winter_Olympics_logo-コピー.svg" serif:id="2006_Winter_Olympics_logo コピー.svg" transform="matrix(0.963278,0,0,0.963278,94.541,65.5699)">
        <g transform="matrix(1,0,0,1,-63,-33)">
            <clipPath id="_clip1">
                <rect x="0" y="0" width="126" height="66"/>
            </clipPath>
            <g clip-path="url(#_clip1)">
                <g id="アートボード1" transform="matrix(0.397976,0,0,0.468405,1.41296,-78.8388)">
                    <rect x="-3.55" y="168.313" width="315.229" height="138.877" style="fill:none;"/>
                </g>
                <g id="g5027" transform="matrix(0.219899,0,0,-0.219899,57.4728,43.0425)">
                    <path id="path5029" d="M0,0C-4.209,-37.26 -35.856,-66.238 -74.294,-66.238C-115.595,-66.238 -149.074,-32.815 -149.074,8.45C-149.074,40.002 -129.428,67.001 -101.692,77.941C-100.935,82.043 -100.562,86.305 -100.562,90.579C-100.562,91.792 -100.562,93.009 -100.64,94.131C-137.371,82.927 -164.106,48.802 -164.106,8.45C-164.106,-41.079 -123.889,-81.202 -74.294,-81.202C-28.39,-81.202 9.407,-46.835 14.812,-2.49C9.771,-2.018 4.799,-1.208 0,0" style="fill:rgb(255,165,0);fill-rule:nonzero;"/>
                </g>
                <g id="g5031" transform="matrix(0.219899,0,0,-0.219899,40.2622,24.7881)">
                    <path id="path5033" d="M0,0C1.321,0.035 2.637,0.121 3.971,0.121C39.971,0.121 70.002,-25.314 77.148,-59.101C82.164,-60.92 87.5,-62.193 92.996,-62.86C87.205,-18.866 49.582,15.06 3.971,15.06C2.637,15.06 1.321,15.016 0,14.973C0.19,12.561 0.29,10.065 0.29,7.566C0.29,5.033 0.19,2.499 0,0" style="fill:rgb(255,165,0);fill-rule:nonzero;"/>
                </g>
                <g id="g5035" transform="matrix(0.219899,0,0,-0.219899,20.5373,41.1843)">
                    <path id="path5037" d="M0,0C0,2.577 0.16,5.062 0.368,7.57C-0.953,7.519 -2.27,7.484 -3.604,7.484C-44.926,7.484 -78.409,40.928 -78.409,82.129C-78.409,123.391 -44.926,156.817 -3.604,156.817C37.68,156.817 71.185,123.391 71.185,82.129C71.185,50.582 51.543,23.6 23.808,12.681C23.049,8.55 22.634,4.318 22.634,0C22.634,-1.213 22.655,-2.399 22.738,-3.561C59.438,7.652 86.148,41.815 86.148,82.129C86.148,131.646 45.978,171.799 -3.604,171.799C-53.203,171.799 -93.394,131.646 -93.394,82.129C-93.394,32.625 -53.203,-7.479 -3.604,-7.479C-2.283,-7.479 -0.953,-7.463 0.368,-7.363C0.16,-4.977 0,-2.508 0,0" style="fill:rgb(0,117,201);fill-rule:nonzero;"/>
                </g>
                <g id="g5039" transform="matrix(0.219899,0,0,-0.219899,46.1927,21.2566)">
                    <path id="path5041" d="M0,0C4.197,37.247 35.822,66.195 74.294,66.195C115.621,66.195 149.064,32.769 149.064,-8.493C149.064,-40.04 129.467,-67.022 101.714,-77.941C100.956,-82.072 100.531,-86.304 100.531,-90.622C100.531,-91.835 100.588,-93.021 100.592,-94.183C137.337,-82.97 164.094,-48.807 164.094,-8.493C164.094,41.023 123.901,81.177 74.294,81.177C28.441,81.177 -9.385,46.806 -14.804,2.469C-9.741,2.019 -4.773,1.208 0,0" style="fill:rgb(37,40,42);fill-rule:nonzero;"/>
                </g>
                <g id="g5043" transform="matrix(0.219899,0,0,-0.219899,63.3309,41.1843)">
                    <path id="path5045" d="M0,0C0,2.577 0.087,5.062 0.338,7.57C-0.983,7.519 -2.304,7.484 -3.643,7.484C-39.625,7.484 -69.639,32.863 -76.815,66.646C-81.852,68.426 -87.136,69.729 -92.658,70.388C-86.833,26.41 -49.222,-7.479 -3.643,-7.479C-2.304,-7.479 -0.983,-7.463 0.338,-7.363C0.143,-4.977 0,-2.508 0,0" style="fill:rgb(37,40,42);fill-rule:nonzero;"/>
                </g>
                <g id="g5047" transform="matrix(0.219899,0,0,-0.219899,100.265,43.0425)">
                    <path id="path5049" d="M0,0C-4.223,-37.26 -35.852,-66.238 -74.303,-66.238C-115.604,-66.238 -149.13,-32.815 -149.13,8.45C-149.13,40.002 -129.463,67.001 -101.727,77.941C-100.995,82.043 -100.553,86.305 -100.553,90.579C-100.553,91.792 -100.601,93.009 -100.679,94.131C-137.401,82.927 -164.115,48.802 -164.115,8.45C-164.115,-41.079 -123.88,-81.202 -74.303,-81.202C-28.484,-81.202 9.368,-46.849 14.761,-2.49C9.693,-2.035 4.795,-1.208 0,0" style="fill:rgb(0,149,59);fill-rule:nonzero;"/>
                </g>
                <g id="g5051" transform="matrix(0.219899,0,0,-0.219899,83.1178,23.1242)">
                    <path id="path5053" d="M0,0C0,-2.533 -0.104,-5.067 -0.29,-7.566C1.021,-7.531 2.343,-7.445 3.677,-7.445C39.654,-7.445 69.699,-32.881 76.832,-66.685C81.843,-68.508 87.184,-69.76 92.632,-70.427C86.867,-26.433 49.239,7.493 3.677,7.493C2.343,7.493 1.021,7.449 -0.308,7.406C-0.174,4.994 0,2.499 0,0" style="fill:rgb(0,149,59);fill-rule:nonzero;"/>
                </g>
                <g id="g5055" transform="matrix(0.219899,0,0,-0.219899,105.318,3.40585)">
                    <path id="path5057" d="M0,0C-45.909,0 -83.649,-34.371 -89.106,-78.687C-84.03,-79.115 -79.115,-79.981 -74.308,-81.216C-70.103,-43.947 -38.438,-14.981 0,-14.981C41.331,-14.981 74.818,-48.408 74.818,-89.67C74.818,-130.871 41.331,-164.314 0,-164.314C-36.039,-164.314 -66.07,-138.936 -73.186,-105.093C-78.231,-103.291 -83.507,-102.026 -89.02,-101.398C-83.256,-145.336 -45.602,-179.278 0,-179.278C49.59,-179.278 89.799,-139.174 89.799,-89.67C89.799,-40.153 49.59,0 0,0" style="fill:rgb(235,0,69);fill-rule:nonzero;"/>
                </g>
            </g>
        </g>
    </g>
</svg>
